<?xml version="1.0" encoding="utf-8"?>
<!-- Generator: Adobe Illustrator 19.0.0, SVG Export Plug-In . SVG Version: 6.00 Build 0)  -->
<svg version="1.1" id="Layer_1" xmlns="http://www.w3.org/2000/svg" xmlns:xlink="http://www.w3.org/1999/xlink" x="0px" y="0px"
	 viewBox="-860 476.2 200 36.8" style="enable-background:new -860 476.2 200 36.8;" xml:space="preserve">
<style type="text/css">
	.st0{fill:#5D5D5D;}
	.st1{fill:#44B7A5;}
	.st2{fill:#656972;}
</style>
<path id="XMLID_20_" class="st0" d="M-781.7,497.5c0,1.8-0.6,3.2-1.9,4.2s-3.1,1.5-5.3,1.5c-2.4,0-4.3-0.3-5.5-0.9V500
	c0.8,0.4,1.7,0.6,2.7,0.8c1,0.2,2,0.3,2.9,0.3c1.6,0,2.8-0.3,3.6-0.9s1.2-1.4,1.2-2.5c0-0.7-0.1-1.3-0.4-1.7
	c-0.3-0.4-0.8-0.9-1.4-1.2c-0.7-0.4-1.7-0.8-3-1.3c-1.9-0.7-3.2-1.5-4-2.4s-1.2-2.1-1.2-3.6c0-1.6,0.6-2.8,1.8-3.7
	c1.2-0.9,2.7-1.4,4.7-1.4s3.9,0.4,5.6,1.1l-0.7,2.1c-1.7-0.7-3.3-1.1-4.9-1.1c-1.2,0-2.2,0.3-2.9,0.8s-1.1,1.3-1.1,2.2
	c0,0.7,0.1,1.3,0.4,1.7s0.7,0.9,1.3,1.2c0.6,0.4,1.6,0.8,2.8,1.2c2.1,0.8,3.6,1.6,4.4,2.4C-782.1,495-781.7,496.1-781.7,497.5z"/>
<path id="XMLID_28_" class="st0" d="M-777.6,502.9v-20.3h2.4v20.3H-777.6z"/>
<path id="XMLID_30_" class="st0" d="M-753.9,502.9h-2.7l-11.1-17h-0.1c0.1,2,0.2,3.8,0.2,5.5v11.5h-2.2v-20.3h2.7l11.1,16.9h0.1
	c0-0.2-0.1-1.1-0.1-2.4c-0.1-1.4-0.1-2.3-0.1-2.9v-11.6h2.2L-753.9,502.9L-753.9,502.9z"/>
<path id="XMLID_32_" class="st0" d="M-739.4,492.3h6.9v9.9c-1.1,0.3-2.2,0.6-3.3,0.8c-1.1,0.2-2.4,0.3-3.9,0.3
	c-3.1,0-5.5-0.9-7.2-2.7c-1.7-1.8-2.6-4.4-2.6-7.7c0-2.1,0.4-4,1.3-5.5c0.8-1.6,2.1-2.8,3.7-3.6c1.6-0.8,3.5-1.3,5.6-1.3
	c2.2,0,4.2,0.4,6,1.2l-0.9,2.1c-1.8-0.8-3.6-1.2-5.3-1.2c-2.5,0-4.4,0.7-5.8,2.2c-1.4,1.5-2.1,3.5-2.1,6.1c0,2.7,0.7,4.8,2,6.2
	c1.3,1.4,3.3,2.1,5.9,2.1c1.4,0,2.8-0.2,4.1-0.5v-6.2h-4.5L-739.4,492.3L-739.4,492.3z"/>
<path id="XMLID_34_" class="st0" d="M-712.2,482.6v13.1c0,2.3-0.7,4.1-2.1,5.4c-1.4,1.3-3.3,2-5.8,2s-4.3-0.7-5.7-2
	c-1.3-1.3-2-3.2-2-5.5v-13.1h2.4v13.4c0,1.7,0.5,3,1.4,3.9s2.3,1.4,4.1,1.4c1.7,0,3-0.5,4-1.4c0.9-0.9,1.4-2.2,1.4-3.9v-13.2
	L-712.2,482.6L-712.2,482.6z"/>
<path id="XMLID_36_" class="st1" d="M-706.9,502.9v-20.3h2.4v18.1h8.9v2.1L-706.9,502.9L-706.9,502.9z"/>
<path id="XMLID_38_" class="st1" d="M-679.4,502.9l-2.5-6.4h-8.1l-2.5,6.4h-2.4l8-20.4h2l8,20.4H-679.4z M-682.7,494.3l-2.4-6.3
	c-0.3-0.8-0.6-1.8-0.9-2.9c-0.2,0.9-0.5,1.9-0.9,2.9l-2.4,6.3H-682.7z"/>
<path id="XMLID_41_" class="st1" d="M-671.9,494.5v8.4h-2.4v-20.3h5.6c2.5,0,4.3,0.5,5.5,1.4c1.2,1,1.8,2.4,1.8,4.3
	c0,2.7-1.4,4.5-4.1,5.4l5.5,9.1h-2.8l-4.9-8.4h-4.2L-671.9,494.5L-671.9,494.5z M-671.9,492.5h3.2c1.7,0,2.9-0.3,3.7-1
	s1.2-1.7,1.2-3s-0.4-2.3-1.2-2.9s-2.1-0.9-3.8-0.9h-3.1L-671.9,492.5L-671.9,492.5z"/>
<circle id="XMLID_15_" class="st1" cx="-855.1" cy="481.1" r="4.9"/>
<circle id="XMLID_17_" class="st2" cx="-840.6" cy="481.1" r="4.9"/>
<circle id="XMLID_23_" class="st1" cx="-855.1" cy="494.6" r="4.9"/>
<circle id="XMLID_22_" class="st1" cx="-840.6" cy="494.6" r="4.9"/>
<circle id="XMLID_26_" class="st1" cx="-840.6" cy="508.1" r="4.9"/>
<circle id="XMLID_21_" class="st2" cx="-826.1" cy="494.6" r="4.9"/>
<circle id="XMLID_27_" class="st2" cx="-855.1" cy="508.1" r="4.9"/>
<circle id="XMLID_18_" class="st2" cx="-826.1" cy="481.1" r="4.9"/>
<circle id="XMLID_25_" class="st2" cx="-826.1" cy="508.1" r="4.9"/>
</svg>
