<?xml version="1.0" encoding="utf-8"?>
<!-- Generator: Adobe Illustrator 19.0.0, SVG Export Plug-In . SVG Version: 6.00 Build 0)  -->
<svg version="1.1" id="Layer_1" xmlns="http://www.w3.org/2000/svg"  x="0px" y="0px"
	 viewBox="-856.5 459.1 200 36.8" style="enable-background:new -856.5 459.1 200 36.8;" xml:space="preserve">
<style type="text/css">
	.st0{fill:#A0A4B5;}
	.st1{fill:#44B7A5;}
	.st2{fill:#D5DAE4;}
</style>
<g id="XMLID_14_">
	<g id="XMLID_19_">
		<path id="XMLID_20_" class="st0" d="M-778.2,480.4c0,1.8-0.6,3.2-1.9,4.2s-3.1,1.5-5.3,1.5c-2.4,0-4.3-0.3-5.5-0.9v-2.3
			c0.8,0.4,1.7,0.6,2.7,0.8c1,0.2,2,0.3,2.9,0.3c1.6,0,2.8-0.3,3.6-0.9s1.2-1.4,1.2-2.5c0-0.7-0.1-1.3-0.4-1.7
			c-0.3-0.4-0.8-0.9-1.4-1.2c-0.7-0.4-1.7-0.8-3-1.3c-1.9-0.7-3.2-1.5-4-2.4s-1.2-2.1-1.2-3.6c0-1.6,0.6-2.8,1.8-3.7
			c1.2-0.9,2.7-1.4,4.7-1.4s3.9,0.4,5.6,1.1l-0.7,2.1c-1.7-0.7-3.3-1.1-4.9-1.1c-1.2,0-2.2,0.3-2.9,0.8s-1.1,1.3-1.1,2.2
			c0,0.7,0.1,1.3,0.4,1.7s0.7,0.9,1.3,1.2c0.6,0.4,1.6,0.8,2.8,1.2c2.1,0.8,3.6,1.6,4.4,2.4C-778.6,477.9-778.2,479-778.2,480.4z"/>
		<path id="XMLID_28_" class="st0" d="M-774.1,485.8v-20.3h2.4v20.3H-774.1z"/>
		<path id="XMLID_30_" class="st0" d="M-750.4,485.8h-2.7l-11.1-17h-0.1c0.1,2,0.2,3.8,0.2,5.5v11.5h-2.2v-20.3h2.7l11.1,16.9h0.1
			c0-0.2-0.1-1.1-0.1-2.4c-0.1-1.4-0.1-2.3-0.1-2.9v-11.6h2.2L-750.4,485.8L-750.4,485.8z"/>
		<path id="XMLID_32_" class="st0" d="M-735.9,475.2h6.9v9.9c-1.1,0.3-2.2,0.6-3.3,0.8c-1.1,0.2-2.4,0.3-3.9,0.3
			c-3.1,0-5.5-0.9-7.2-2.7c-1.7-1.8-2.6-4.4-2.6-7.7c0-2.1,0.4-4,1.3-5.5c0.8-1.6,2.1-2.8,3.7-3.6c1.6-0.8,3.5-1.3,5.6-1.3
			c2.2,0,4.2,0.4,6,1.2l-0.9,2.1c-1.8-0.8-3.6-1.2-5.3-1.2c-2.5,0-4.4,0.7-5.8,2.2c-1.4,1.5-2.1,3.5-2.1,6.1c0,2.7,0.7,4.8,2,6.2
			c1.3,1.4,3.3,2.1,5.9,2.1c1.4,0,2.8-0.2,4.1-0.5v-6.2h-4.5L-735.9,475.2L-735.9,475.2z"/>
		<path id="XMLID_34_" class="st0" d="M-708.7,465.5v13.1c0,2.3-0.7,4.1-2.1,5.4c-1.4,1.3-3.3,2-5.8,2s-4.3-0.7-5.7-2
			c-1.3-1.3-2-3.2-2-5.5v-13.1h2.4v13.4c0,1.7,0.5,3,1.4,3.9s2.3,1.4,4.1,1.4c1.7,0,3-0.5,4-1.4c0.9-0.9,1.4-2.2,1.4-3.9v-13.2
			L-708.7,465.5L-708.7,465.5z"/>
		<path id="XMLID_36_" class="st1" d="M-703.4,485.8v-20.3h2.4v18.1h8.9v2.1L-703.4,485.8L-703.4,485.8z"/>
		<path id="XMLID_38_" class="st1" d="M-675.9,485.8l-2.5-6.4h-8.1l-2.5,6.4h-2.4l8-20.4h2l8,20.4H-675.9z M-679.2,477.2l-2.4-6.3
			c-0.3-0.8-0.6-1.8-0.9-2.9c-0.2,0.9-0.5,1.9-0.9,2.9l-2.4,6.3H-679.2z"/>
		<path id="XMLID_41_" class="st1" d="M-668.4,477.4v8.4h-2.4v-20.3h5.6c2.5,0,4.3,0.5,5.5,1.4c1.2,1,1.8,2.4,1.8,4.3
			c0,2.7-1.4,4.5-4.1,5.4l5.5,9.1h-2.8l-4.9-8.4h-4.2L-668.4,477.4L-668.4,477.4z M-668.4,475.4h3.2c1.7,0,2.9-0.3,3.7-1
			s1.2-1.7,1.2-3s-0.4-2.3-1.2-2.9s-2.1-0.9-3.8-0.9h-3.1L-668.4,475.4L-668.4,475.4z"/>
	</g>
	<g id="XMLID_16_">
		<circle id="XMLID_15_" class="st1" cx="-851.6" cy="464" r="4.9"/>
		<circle id="XMLID_17_" class="st2" cx="-837.1" cy="464" r="4.9"/>
		<circle id="XMLID_23_" class="st1" cx="-851.6" cy="477.5" r="4.9"/>
		<circle id="XMLID_22_" class="st1" cx="-837.1" cy="477.5" r="4.9"/>
		<circle id="XMLID_26_" class="st1" cx="-837.1" cy="491" r="4.9"/>
		<circle id="XMLID_21_" class="st2" cx="-822.6" cy="477.5" r="4.9"/>
		<circle id="XMLID_27_" class="st2" cx="-851.6" cy="491" r="4.9"/>
		<circle id="XMLID_18_" class="st2" cx="-822.6" cy="464" r="4.9"/>
		<circle id="XMLID_25_" class="st2" cx="-822.6" cy="491" r="4.9"/>
	</g>
</g>
</svg>
