<?xml version="1.0" encoding="UTF-8" standalone="no"?>
<svg width="21px" height="21px" viewBox="0 0 21 21" version="1.1" xmlns="http://www.w3.org/2000/svg" xmlns:xlink="http://www.w3.org/1999/xlink">
    <!-- Generator: Sketch 3.8.3 (29802) - http://www.bohemiancoding.com/sketch -->
    <title>ic_comment</title>
    <desc>Created with Sketch.</desc>
    <defs></defs>
    <g id="TABLE" stroke="none" stroke-width="1" fill="none" fill-rule="evenodd">
        <g id="List-by-Master-Detail_modal-Copy-3" transform="translate(-475.000000, -192.000000)">
            <g id="ic_comment" transform="translate(473.000000, 190.000000)">
                <polygon id="Bounds" points="0 0 25 0 25 25 0 25"></polygon>
                <path d="M22.90625,4.16666667 C22.90625,3.02083333 21.9791667,2.08333333 20.8333333,2.08333333 L4.16666667,2.08333333 C3.02083333,2.08333333 2.08333333,3.02083333 2.08333333,4.16666667 L2.08333333,16.6666667 C2.08333333,17.8125 3.02083333,18.75 4.16666667,18.75 L18.75,18.75 L22.9166667,22.9166667 L22.90625,4.16666667 L22.90625,4.16666667 Z M18.75,14.5833333 L6.25,14.5833333 L6.25,12.5 L18.75,12.5 L18.75,14.5833333 L18.75,14.5833333 Z M18.75,11.4583333 L6.25,11.4583333 L6.25,9.375 L18.75,9.375 L18.75,11.4583333 L18.75,11.4583333 Z M18.75,8.33333333 L6.25,8.33333333 L6.25,6.25 L18.75,6.25 L18.75,8.33333333 L18.75,8.33333333 Z" id="Shape" fill="#CACACA"></path>
            </g>
        </g>
    </g>
</svg>