<?xml version="1.0" encoding="UTF-8" standalone="no"?>
<svg width="21px" height="21px" viewBox="0 0 21 21" version="1.1" xmlns="http://www.w3.org/2000/svg" xmlns:xlink="http://www.w3.org/1999/xlink">
    <!-- Generator: Sketch 3.8.3 (29802) - http://www.bohemiancoding.com/sketch -->
    <title>Group 2</title>
    <desc>Created with Sketch.</desc>
    <defs></defs>
    <g id="TABLE" stroke="none" stroke-width="1" fill="none" fill-rule="evenodd">
        <g id="List-by-Master-Detail_modal-Copy-3" transform="translate(-226.000000, -192.000000)">
            <g id="Group-2" transform="translate(224.000000, 190.000000)">
                <g id="ic_comment">
                    <polygon id="Bounds" points="0 0 25 0 25 25 0 25"></polygon>
                    <path d="M22.90625,4.16666667 C22.90625,3.02083333 21.9791667,2.08333333 20.8333333,2.08333333 L4.16666667,2.08333333 C3.02083333,2.08333333 2.08333333,3.02083333 2.08333333,4.16666667 L2.08333333,16.6666667 C2.08333333,17.8125 3.02083333,18.75 4.16666667,18.75 L18.75,18.75 L22.9166667,22.9166667 L22.90625,4.16666667 L22.90625,4.16666667 Z" id="Shape" fill="#E24659"></path>
                    <path d="M7.5,15 L9.31818182,15 L9.31818182,9.75 L7.5,9.75 L7.5,15 L7.5,15 Z M17.5,10.1875 C17.5,9.70625 17.0909091,9.3125 16.5909091,9.3125 L13.7227273,9.3125 L14.1545455,7.313125 L14.1681818,7.173125 C14.1681818,6.99375 14.0909091,6.8275 13.9681818,6.709375 L13.4863636,6.25 L10.4954545,9.133125 C10.3272727,9.290625 10.2272727,9.509375 10.2272727,9.75 L10.2272727,14.125 C10.2272727,14.60625 10.6363636,15 11.1363636,15 L15.2272727,15 C15.6045455,15 15.9272727,14.78125 16.0636364,14.46625 L17.4363636,11.381875 C17.4772727,11.28125 17.5,11.17625 17.5,11.0625 L17.5,10.226875 L17.4954545,10.2225 L17.5,10.1875 L17.5,10.1875 Z" id="Shape" fill="#FFFFFF" transform="translate(12.500000, 10.625000) rotate(-180.000000) translate(-12.500000, -10.625000) "></path>
                </g>
            </g>
        </g>
    </g>
</svg>