<?xml version="1.0" encoding="utf-8"?>
<!-- Generator: Adobe Illustrator 19.0.0, SVG Export Plug-In . SVG Version: 6.00 Build 0)  -->
<svg version="1.1" id="Layer_1" xmlns="http://www.w3.org/2000/svg"  x="0px" y="0px"
	 viewBox="0 0 414 179.9" style="enable-background:new 0 0 414 179.9;" xml:space="preserve">
<style type="text/css">
	.st0{fill:none;}
	.st1{fill: #CCCCCC;}
</style>
<rect x="-431.9" y="-289.8" class="st0" width="1280" height="760"/>
<g>
	<rect x="-431.9" y="-289.8" class="st0" width="1280" height="760"/>
</g>
<rect x="-431.9" y="-289.8" class="st0" width="1280" height="760"/>
<rect x="-431.9" y="-289.8" class="st0" width="1280" height="760"/>
<rect x="-431.9" y="-289.8" class="st0" width="1280" height="760"/>
<rect x="-431.9" y="-289.8" class="st0" width="1280" height="760"/>
<rect x="-431.9" y="-289.8" class="st0" width="1280" height="760"/>
<rect x="-431.9" y="-289.8" class="st0" width="1280" height="760"/>
<rect x="-431.9" y="-289.8" class="st0" width="1280" height="760"/>
<rect x="-431.9" y="-289.8" class="st0" width="1280" height="760"/>
<rect x="-431.9" y="-289.8" class="st0" width="1280" height="760"/>
<rect x="-431.9" y="-289.8" class="st0" width="1280" height="760"/>
<rect x="-431.9" y="-289.8" class="st0" width="1280" height="760"/>
<rect x="-431.9" y="-289.8" class="st0" width="1280" height="760"/>
<g id="XMLID_15_">
	<path id="XMLID_81_" class="st1" d="M412,175.9h-53.6c0.6-1,0.9-2.2,0.9-3.5v-28.6c0-2.1-0.9-3.9-2.3-5.2c1.4-1.3,2.3-3.1,2.3-5.2
		v-28.6c0-2.1-0.9-3.9-2.3-5.2c1.4-1.3,2.3-3.1,2.3-5.2V65.9c0-3.9-3.1-7-7-7H237.2c-3.9,0-7,3.1-7,7v28.6c0,2.1,0.9,3.9,2.3,5.2
		c-1.4,1.3-2.3,3.1-2.3,5.2v28.6c0,2.1,0.9,3.9,2.3,5.2c-1.4,1.3-2.3,3.1-2.3,5.2v28.6c0,1.3,0.3,2.5,0.9,3.5h-89.5
		c0.1-0.6-0.2-1.2-0.6-1.7l-7.6-6.9c-1.6-1.5-3-4.7-3-6.9v-1.4h46.8c5,0,9-4,9-9V88.4V70.1v0c0-5-4-9-9-9H62.1c-5,0-9,4-9,9v0v18.3
		v61.7c0,5,4,9,9,9h46.8v1.4c0,2.2-1.4,5.4-3,6.9l-7.6,6.9c-0.5,0.4-0.7,1.1-0.6,1.7H2c-1.1,0-2,0.9-2,2s0.9,2,2,2h410
		c1.1,0,2-0.9,2-2S413.1,175.9,412,175.9z M57.1,70.1c0-2.8,2.2-5,5-5h115.1c0,0,0,0,0,0c2.8,0,5,2.2,5,5v14.3H57.1V70.1z
		 M62.1,155.1c-2.8,0-5-2.2-5-5V88.4h125.1v61.7c0,2.8-2.2,5-5,5h-46.8h-4h-13.5h-4H62.1z M102.4,175.9l6.2-5.6
		c2.4-2.2,4.4-6.5,4.4-9.8v-1.4h13.5v1.4c0,3.3,1.9,7.6,4.4,9.8l6.2,5.6H102.4z M355.3,172.4c0,1.7-1.3,3-3,3H237.2
		c-1.7,0-3-1.3-3-3v-28.6c0-1.7,1.3-3,3-3h115.1c1.7,0,3,1.3,3,3V172.4z M355.3,133.5c0,1.7-1.3,3-3,3H237.2c-1.7,0-3-1.3-3-3v-28.6
		c0-1.7,1.3-3,3-3h115.1c1.7,0,3,1.3,3,3V133.5z M355.3,94.5c0,1.7-1.3,3-3,3H237.2c-1.7,0-3-1.3-3-3V65.9c0-1.7,1.3-3,3-3h115.1
		c1.7,0,3,1.3,3,3V94.5z"/>
	<ellipse id="XMLID_95_" class="st1" cx="264.6" cy="80.8" rx="3.1" ry="3.2"/>
	<ellipse id="XMLID_96_" class="st1" cx="277.1" cy="80.8" rx="3.1" ry="3.2"/>
	<rect id="XMLID_97_" x="296.3" y="73.8" class="st1" width="2" height="12.9"/>
	<rect id="XMLID_98_" x="305.7" y="73.8" class="st1" width="2" height="12.9"/>
	<rect id="XMLID_99_" x="315" y="73.8" class="st1" width="2" height="12.9"/>
	<rect id="XMLID_100_" x="324.4" y="73.8" class="st1" width="2" height="12.9"/>
	<rect id="XMLID_101_" x="333.8" y="73.8" class="st1" width="2" height="12.9"/>
	<ellipse id="XMLID_102_" class="st1" cx="264.6" cy="119.8" rx="3.1" ry="3.2"/>
	<ellipse id="XMLID_103_" class="st1" cx="277.1" cy="119.8" rx="3.1" ry="3.2"/>
	<rect id="XMLID_104_" x="296.3" y="112.7" class="st1" width="2" height="12.9"/>
	<rect id="XMLID_105_" x="305.7" y="112.7" class="st1" width="2" height="12.9"/>
	<rect id="XMLID_106_" x="315" y="112.7" class="st1" width="2" height="12.9"/>
	<rect id="XMLID_107_" x="324.4" y="112.7" class="st1" width="2" height="12.9"/>
	<rect id="XMLID_108_" x="333.8" y="112.7" class="st1" width="2" height="12.9"/>
	<ellipse id="XMLID_109_" class="st1" cx="264.6" cy="158.8" rx="3.1" ry="3.2"/>
	<ellipse id="XMLID_110_" class="st1" cx="277.1" cy="158.8" rx="3.1" ry="3.2"/>
	<rect id="XMLID_111_" x="296.3" y="151.7" class="st1" width="2" height="12.9"/>
	<rect id="XMLID_112_" x="305.7" y="151.7" class="st1" width="2" height="12.9"/>
	<rect id="XMLID_113_" x="315" y="151.7" class="st1" width="2" height="12.9"/>
	<rect id="XMLID_114_" x="324.4" y="151.7" class="st1" width="2" height="12.9"/>
	<rect id="XMLID_115_" x="333.8" y="151.7" class="st1" width="2" height="12.9"/>
	<path id="XMLID_116_" class="st1" d="M163.9,23.3c0.2,0,0.3,0,0.5-0.1l0.9-0.3c0.2-0.1,0.3-0.1,0.4-0.2c0.2,0,0.3,0,0.5-0.1
		l0.9-0.3c0.8-0.3,1.2-1.1,1-1.9c-0.3-0.8-1.1-1.2-1.9-1l-1,0.3c-0.2,0.1-0.3,0.1-0.5,0.2c-0.2,0-0.3,0-0.5,0.1l-1,0.3
		c-0.8,0.3-1.2,1.1-0.9,1.9C162.7,22.9,163.3,23.3,163.9,23.3z"/>
	<path id="XMLID_117_" class="st1" d="M156.5,26.3c0.2,0,0.4,0,0.6-0.1c0.3-0.1,0.6-0.3,0.9-0.4c0.2-0.1,0.3-0.2,0.4-0.3
		c0.2,0,0.3,0,0.5-0.1l0.9-0.4c0.8-0.3,1.1-1.2,0.8-2c-0.3-0.8-1.2-1.1-2-0.8l-0.9,0.4c-0.2,0.1-0.3,0.2-0.4,0.3
		c-0.2,0-0.3,0.1-0.5,0.1c-0.3,0.1-0.6,0.3-0.9,0.4c-0.8,0.3-1.1,1.2-0.7,2C155.4,26,155.9,26.3,156.5,26.3z"/>
	<path id="XMLID_118_" class="st1" d="M179.3,19c0.1,0,0.2,0,0.3,0l1-0.2c0.2,0,0.3-0.1,0.5-0.2c0.2,0,0.3,0,0.5,0l1-0.2
		c0.8-0.1,1.4-0.9,1.2-1.7c-0.1-0.8-0.9-1.4-1.7-1.2l-1,0.2c-0.2,0-0.3,0.1-0.5,0.2c-0.2,0-0.3,0-0.5,0l-1,0.2
		c-0.8,0.2-1.3,1-1.2,1.8C177.9,18.5,178.6,19,179.3,19z"/>
	<path id="XMLID_119_" class="st1" d="M171.5,20.9c0.1,0,0.3,0,0.4-0.1l1-0.3c0.2,0,0.3-0.1,0.5-0.2c0.2,0,0.3,0,0.5,0l1-0.2
		c0.8-0.2,1.3-1,1.1-1.8c-0.2-0.8-1-1.3-1.8-1.1l-1,0.2c-0.2,0-0.3,0.1-0.5,0.2c-0.2,0-0.3,0-0.5,0l-1,0.3c-0.8,0.2-1.3,1-1,1.8
		C170.2,20.4,170.8,20.9,171.5,20.9z"/>
	<path id="XMLID_120_" class="st1" d="M130.3,44.4c0.4,0,0.8-0.2,1.1-0.5c0.2-0.2,0.5-0.5,0.7-0.7c0.1-0.1,0.2-0.3,0.3-0.4
		c0.1-0.1,0.3-0.2,0.4-0.3c0.2-0.2,0.5-0.5,0.7-0.7c0.6-0.6,0.6-1.5,0.1-2.1c-0.6-0.6-1.5-0.6-2.1-0.1c-0.2,0.2-0.5,0.5-0.7,0.7
		c-0.1,0.1-0.2,0.3-0.3,0.4c-0.2,0.1-0.3,0.2-0.4,0.3c-0.2,0.2-0.5,0.5-0.7,0.7c-0.6,0.6-0.6,1.5,0,2.1
		C129.6,44.3,129.9,44.4,130.3,44.4z"/>
	<path id="XMLID_121_" class="st1" d="M124.1,50.1c0.3,0.2,0.6,0.3,0.9,0.3c0.4,0,0.9-0.2,1.2-0.6c0.2-0.3,0.4-0.5,0.6-0.8
		c0.1-0.1,0.2-0.3,0.2-0.4c0.1-0.1,0.3-0.2,0.4-0.3c0.2-0.3,0.4-0.5,0.6-0.8c0.5-0.6,0.5-1.6-0.2-2.1c-0.6-0.5-1.6-0.5-2.1,0.2
		c-0.2,0.3-0.4,0.5-0.7,0.8c-0.1,0.1-0.2,0.3-0.3,0.5c-0.1,0.1-0.3,0.2-0.4,0.3c-0.2,0.3-0.4,0.5-0.6,0.8
		C123.4,48.7,123.5,49.6,124.1,50.1z"/>
	<path id="XMLID_122_" class="st1" d="M149.3,29.9c0.2,0,0.5-0.1,0.7-0.2l0.9-0.5c0.2-0.1,0.3-0.2,0.4-0.3c0.2,0,0.3-0.1,0.5-0.2
		l0.9-0.5c0.7-0.4,1-1.3,0.6-2c-0.4-0.7-1.3-1-2-0.6c-0.3,0.2-0.6,0.3-0.9,0.5c-0.2,0.1-0.3,0.2-0.4,0.3c-0.2,0-0.3,0.1-0.5,0.2
		l-0.9,0.5c-0.7,0.4-1,1.3-0.6,2C148.3,29.6,148.8,29.9,149.3,29.9z"/>
	<path id="XMLID_123_" class="st1" d="M136.2,39c0.3,0,0.7-0.1,1-0.4c0.3-0.2,0.5-0.4,0.8-0.6c0.1-0.1,0.2-0.2,0.3-0.4
		c0.2-0.1,0.3-0.1,0.4-0.2c0.3-0.2,0.5-0.4,0.8-0.6c0.7-0.5,0.8-1.5,0.3-2.1c-0.5-0.7-1.5-0.8-2.1-0.3c-0.3,0.2-0.5,0.4-0.8,0.6
		c-0.1,0.1-0.3,0.2-0.3,0.4c-0.2,0.1-0.3,0.1-0.4,0.3c-0.3,0.2-0.5,0.4-0.8,0.6c-0.6,0.5-0.7,1.5-0.2,2.1
		C135.3,38.8,135.7,39,136.2,39z"/>
	<path id="XMLID_124_" class="st1" d="M142.5,34.1c0.3,0,0.6-0.1,0.8-0.3c0.3-0.2,0.5-0.4,0.8-0.6c0.1-0.1,0.3-0.2,0.4-0.3
		c0.2,0,0.3-0.1,0.5-0.2c0.3-0.2,0.5-0.4,0.8-0.5c0.7-0.4,0.9-1.4,0.5-2.1c-0.4-0.7-1.4-0.9-2.1-0.5c-0.3,0.2-0.6,0.4-0.9,0.6
		c-0.1,0.1-0.3,0.2-0.4,0.4c-0.2,0-0.3,0.1-0.5,0.2c-0.3,0.2-0.6,0.4-0.8,0.6c-0.7,0.5-0.9,1.4-0.4,2.1
		C141.6,33.9,142.1,34.1,142.5,34.1z"/>
	<path id="XMLID_125_" class="st1" d="M241.8,23.5l0.9,0.3c0.2,0.1,0.3,0.1,0.5,0.1c0.1,0.1,0.3,0.2,0.4,0.3l0.9,0.4
		c0.2,0.1,0.4,0.1,0.6,0.1c0.6,0,1.2-0.4,1.4-0.9c0.3-0.8-0.1-1.6-0.8-2c-0.3-0.1-0.6-0.3-0.9-0.4c-0.2-0.1-0.3-0.1-0.5-0.1
		c-0.1-0.1-0.3-0.2-0.4-0.3l-0.9-0.4c-0.8-0.3-1.6,0.1-1.9,0.9C240.6,22.3,241,23.2,241.8,23.5z"/>
	<path id="XMLID_126_" class="st1" d="M269.8,39.6c0.1,0.1,0.3,0.2,0.4,0.3c0.1,0.1,0.2,0.3,0.3,0.4c0.2,0.2,0.5,0.4,0.7,0.6
		c0.3,0.3,0.6,0.4,1,0.4c0.4,0,0.8-0.2,1.1-0.5c0.6-0.6,0.5-1.6-0.1-2.1c-0.3-0.2-0.5-0.5-0.8-0.7c-0.1-0.1-0.3-0.2-0.4-0.3
		c-0.1-0.1-0.2-0.3-0.3-0.4c-0.3-0.2-0.5-0.4-0.8-0.7c-0.6-0.5-1.6-0.4-2.1,0.2c-0.5,0.6-0.4,1.6,0.2,2.1
		C269.3,39.1,269.6,39.4,269.8,39.6z"/>
	<path id="XMLID_127_" class="st1" d="M262.8,34.2c0.3,0.2,0.5,0.4,0.8,0.6c0.1,0.1,0.3,0.2,0.5,0.2c0.1,0.1,0.2,0.3,0.4,0.4
		l0.8,0.6c0.3,0.2,0.6,0.3,0.9,0.3c0.5,0,0.9-0.2,1.2-0.6c0.5-0.7,0.3-1.6-0.3-2.1c-0.3-0.2-0.5-0.4-0.8-0.6
		c-0.1-0.1-0.3-0.2-0.5-0.2c-0.1-0.1-0.2-0.3-0.4-0.4c-0.3-0.2-0.6-0.4-0.8-0.6c-0.7-0.5-1.6-0.3-2.1,0.4
		C261.9,32.8,262.1,33.8,262.8,34.2z"/>
	<path id="XMLID_128_" class="st1" d="M256.1,30.1c0.3,0.2,0.6,0.3,0.9,0.5c0.2,0.1,0.3,0.1,0.5,0.2c0.1,0.1,0.2,0.2,0.4,0.3
		l0.8,0.5c0.2,0.1,0.5,0.2,0.8,0.2c0.5,0,1-0.3,1.3-0.7c0.4-0.7,0.2-1.6-0.5-2.1l-0.9-0.5c-0.2-0.1-0.3-0.2-0.5-0.2
		c-0.1-0.1-0.2-0.2-0.4-0.3c-0.3-0.2-0.6-0.3-0.9-0.5c-0.7-0.4-1.6-0.1-2,0.6C255.1,28.8,255.4,29.7,256.1,30.1z"/>
	<path id="XMLID_129_" class="st1" d="M275.5,44.9c0.1,0.1,0.3,0.2,0.4,0.3c0.1,0.1,0.2,0.3,0.3,0.4c0.2,0.2,0.4,0.5,0.7,0.7
		c0.3,0.3,0.7,0.5,1.1,0.5c0.4,0,0.7-0.1,1-0.4c0.6-0.6,0.7-1.5,0.1-2.1c-0.2-0.3-0.5-0.5-0.7-0.8c-0.1-0.1-0.3-0.2-0.4-0.3
		c-0.1-0.2-0.2-0.3-0.3-0.4c-0.2-0.2-0.5-0.5-0.7-0.7c-0.6-0.6-1.5-0.6-2.1,0c-0.6,0.6-0.6,1.5,0,2.1
		C275.1,44.5,275.3,44.7,275.5,44.9z"/>
	<path id="XMLID_130_" class="st1" d="M280.6,50.9c0.1,0.1,0.2,0.2,0.4,0.3c0,0.2,0.1,0.3,0.2,0.4c0.2,0.3,0.4,0.5,0.6,0.8
		c0.3,0.4,0.8,0.6,1.2,0.6c0.3,0,0.6-0.1,0.9-0.3c0.7-0.5,0.8-1.4,0.4-2.1c-0.2-0.3-0.4-0.6-0.6-0.8c-0.1-0.1-0.2-0.3-0.4-0.4
		c-0.1-0.2-0.1-0.3-0.2-0.5c-0.2-0.3-0.4-0.5-0.6-0.8c-0.5-0.7-1.5-0.8-2.1-0.3c-0.7,0.5-0.8,1.5-0.3,2.1
		C280.2,50.4,280.4,50.6,280.6,50.9z"/>
	<path id="XMLID_131_" class="st1" d="M249.1,26.5c0.3,0.1,0.6,0.3,0.9,0.4c0.2,0.1,0.3,0.1,0.5,0.1c0.1,0.1,0.3,0.2,0.4,0.3
		c0.3,0.1,0.6,0.3,0.9,0.4c0.2,0.1,0.4,0.2,0.7,0.2c0.6,0,1.1-0.3,1.3-0.8c0.4-0.7,0.1-1.6-0.7-2c-0.3-0.2-0.6-0.3-0.9-0.4
		c-0.2-0.1-0.3-0.1-0.5-0.1c-0.1-0.1-0.3-0.2-0.4-0.3c-0.3-0.1-0.6-0.3-0.9-0.4c-0.8-0.3-1.6,0-2,0.7
		C248,25.3,248.3,26.2,249.1,26.5z"/>
	<path id="XMLID_134_" class="st1" d="M187.2,17.7c0.1,0,0.1,0,0.2,0l1-0.1c0,0,0.1,0,0.1,0c1.1,7.3,7.2,12.9,14.6,12.9
		c7.6,0,13.8-5.9,14.7-13.4c0.2,0.4,0.6,0.7,1.1,0.8l1,0.1c0.2,0,0.3,0,0.5,0c0.1,0.1,0.3,0.1,0.5,0.2l1,0.2c0.1,0,0.2,0,0.2,0
		c0.7,0,1.4-0.5,1.5-1.3c0.1-0.8-0.4-1.6-1.2-1.7l-1-0.2c-0.2,0-0.3,0-0.5,0c-0.1-0.1-0.3-0.1-0.5-0.2l-1-0.1
		c-0.6-0.1-1.1,0.2-1.4,0.6c0-0.1,0-0.1,0-0.2c0-8.4-6.6-15.2-14.8-15.2c-8,0-14.5,6.5-14.8,14.6c-0.1,0-0.2,0-0.3,0l-1,0.1
		c-0.8,0.1-1.4,0.9-1.3,1.7C185.8,17.1,186.4,17.7,187.2,17.7z M201.2,8.1c0-1.1,0.9-2,2-2s2,0.9,2,2v5.6v2.4c0,0.1,0,0.2,0,0.3
		c0,0.1,0,0.2-0.1,0.3c-0.3,0.8-1,1.4-1.9,1.4c-1.1,0-2-0.9-2-2V8.1z M201.2,21.6c0-1.1,0.9-2,2-2s2,0.9,2,2v0.6c0,1.1-0.9,2-2,2
		s-2-0.9-2-2V21.6z"/>
	<path id="XMLID_136_" class="st1" d="M234.3,21l0.9,0.3c0.2,0,0.3,0.1,0.5,0.1c0.1,0.1,0.3,0.2,0.4,0.2l0.9,0.3
		c0.2,0,0.3,0.1,0.5,0.1c0.6,0,1.2-0.4,1.4-1c0.3-0.8-0.2-1.6-1-1.9l-1-0.3c-0.2-0.1-0.3-0.1-0.5-0.1c-0.1-0.1-0.3-0.2-0.5-0.2
		l-1-0.3c-0.8-0.2-1.6,0.2-1.9,1C233,20,233.5,20.8,234.3,21z"/>
	<path id="XMLID_137_" class="st1" d="M226.6,19.1l1,0.2c0.2,0,0.3,0,0.5,0c0.1,0.1,0.3,0.2,0.5,0.2l1,0.2c0.1,0,0.2,0,0.4,0
		c0.7,0,1.3-0.5,1.5-1.2c0.2-0.8-0.3-1.6-1.1-1.8l-1-0.2c-0.2,0-0.3,0-0.5,0c-0.1-0.1-0.3-0.2-0.5-0.2l-1-0.2
		c-0.8-0.2-1.6,0.3-1.8,1.2C225.3,18.2,225.8,19,226.6,19.1z"/>
	<path id="XMLID_140_" class="st1" d="M88.1,103.9c-8.1,0-14.7,6.7-14.7,15.1S80,134,88.1,134c8.1,0,14.7-6.7,14.7-15.1
		S96.2,103.9,88.1,103.9z M94.7,125c-0.3,0.3-0.7,0.4-1.1,0.4s-0.8-0.1-1.1-0.4l-4.1-4.1l-4.2,4.2c-0.3,0.3-0.7,0.4-1.1,0.4
		s-0.8-0.1-1.1-0.4c-0.6-0.6-0.6-1.5,0-2.1l4.2-4.2l-3.5-3.5c-0.6-0.6-0.6-1.5,0-2.1c0.6-0.6,1.5-0.6,2.1,0l3.5,3.5l3.6-3.6
		c0.6-0.6,1.5-0.6,2.1,0c0.6,0.6,0.6,1.5,0,2.1l-3.6,3.6l4.1,4.1C95.3,123.5,95.3,124.4,94.7,125z"/>
	<path id="XMLID_141_" class="st1" d="M114,102.3h30c1.1,0,2-0.9,2-2s-0.9-2-2-2h-30c-1.1,0-2,0.9-2,2S112.9,102.3,114,102.3z"/>
	<path id="XMLID_142_" class="st1" d="M113,110.6c0,0.6,0.4,1,1,1h52c0.6,0,1-0.4,1-1s-0.4-1-1-1h-52C113.5,109.6,113,110,113,110.6
		z"/>
	<path id="XMLID_143_" class="st1" d="M166.1,115h-52c-0.6,0-1,0.4-1,1s0.4,1,1,1h52c0.6,0,1-0.4,1-1S166.6,115,166.1,115z"/>
	<path id="XMLID_144_" class="st1" d="M166.1,120.4h-52c-0.6,0-1,0.4-1,1s0.4,1,1,1h52c0.6,0,1-0.4,1-1S166.6,120.4,166.1,120.4z"/>
	<path id="XMLID_145_" class="st1" d="M166.1,125.8h-52c-0.6,0-1,0.4-1,1s0.4,1,1,1h52c0.6,0,1-0.4,1-1S166.6,125.8,166.1,125.8z"/>
	<path id="XMLID_146_" class="st1" d="M166.1,131.2h-52c-0.6,0-1,0.4-1,1s0.4,1,1,1h52c0.6,0,1-0.4,1-1S166.6,131.2,166.1,131.2z"/>
	<path id="XMLID_147_" class="st1" d="M140.3,136.6H114c-0.6,0-1,0.4-1,1s0.4,1,1,1h26.3c0.6,0,1-0.4,1-1S140.9,136.6,140.3,136.6z"
		/>
	<path id="XMLID_150_" class="st1" d="M249.1,75.6c-2.8,0-5.1,2.3-5.1,5.2s2.3,5.2,5.1,5.2s5.1-2.3,5.1-5.2S252,75.6,249.1,75.6z
		 M249.1,84c-1.7,0-3.1-1.4-3.1-3.2c0-1.8,1.4-3.2,3.1-3.2c1.7,0,3.1,1.4,3.1,3.2C252.3,82.6,250.9,84,249.1,84z"/>
	<path id="XMLID_153_" class="st1" d="M249.1,114.6c-2.8,0-5.1,2.3-5.1,5.2s2.3,5.2,5.1,5.2s5.1-2.3,5.1-5.2S252,114.6,249.1,114.6z
		 M249.1,123c-1.7,0-3.1-1.4-3.1-3.2c0-1.8,1.4-3.2,3.1-3.2c1.7,0,3.1,1.4,3.1,3.2C252.3,121.6,250.9,123,249.1,123z"/>
	<path id="XMLID_156_" class="st1" d="M249.1,153.6c-2.8,0-5.1,2.3-5.1,5.2s2.3,5.2,5.1,5.2s5.1-2.3,5.1-5.2S252,153.6,249.1,153.6z
		 M249.1,162c-1.7,0-3.1-1.4-3.1-3.2s1.4-3.2,3.1-3.2c1.7,0,3.1,1.4,3.1,3.2S250.9,162,249.1,162z"/>
</g>
</svg>
